name ./resultDataOpenSim/trcMotMarkerGrf/sub09/grf-03-05.mot
datacolumns 19
datarows 17
range 0.93200000 0.99600000
endheader

                time	     ground_force_vx	     ground_force_vy	     ground_force_vz	     ground_force_px	     ground_force_py	     ground_force_pz	   l_ground_force_vx	   l_ground_force_vy	   l_ground_force_vz	   l_ground_force_px	   l_ground_force_py	   l_ground_force_pz	     ground_torque_x	     ground_torque_y	     ground_torque_z	   l_ground_torque_x	   l_ground_torque_y	   l_ground_torque_z	
          0.93200000	          0.00000000	          0.00000000	          0.00000000	          0.00000000	          0.00000000	          0.00000000	        -22.04804249	        402.11736507	         18.57237462	          0.10400410	         -0.05000000	         -0.00467538	          0.00000000	          0.00000000	          0.00000000	          0.00000000	         -0.97683220	          0.00000000	
          0.93600000	          0.00000000	          0.00000000	          0.00000000	          0.00000000	          0.00000000	          0.00000000	        -20.91746401	        399.24458618	         18.94755811	          0.10426332	         -0.05000000	         -0.00455058	          0.00000000	          0.00000000	          0.00000000	          0.00000000	         -1.11366367	          0.00000000	
          0.94000000	          0.00000000	          0.00000000	          0.00000000	          0.00000000	          0.00000000	          0.00000000	        -19.79235800	        396.74345130	         19.34884772	          0.10437401	         -0.05000000	         -0.00449661	          0.00000000	          0.00000000	          0.00000000	          0.00000000	         -1.24752371	          0.00000000	
          0.94400000	          0.00000000	          0.00000000	          0.00000000	          0.00000000	          0.00000000	          0.00000000	        -18.61513000	        394.54124522	         19.77563539	          0.10439897	         -0.05000000	         -0.00448150	          0.00000000	          0.00000000	          0.00000000	          0.00000000	         -1.37562627	          0.00000000	
          0.94800000	          0.00000000	          0.00000000	          0.00000000	          0.00000000	          0.00000000	          0.00000000	        -17.33410032	        392.65774212	         20.21381869	          0.10442517	         -0.05000000	         -0.00446020	          0.00000000	          0.00000000	          0.00000000	          0.00000000	         -1.49731099	          0.00000000	
          0.95200000	          0.00000000	          0.00000000	          0.00000000	          0.00000000	          0.00000000	          0.00000000	        -15.92342516	        391.17622994	         20.64038850	          0.10452475	         -0.05000000	         -0.00439225	          0.00000000	          0.00000000	          0.00000000	          0.00000000	         -1.61491776	          0.00000000	
          0.95600000	          0.00000000	          0.00000000	          0.00000000	          0.00000000	          0.00000000	          0.00000000	        -14.38315668	        390.20842194	         21.02997661	          0.10474057	         -0.05000000	         -0.00424324	          0.00000000	          0.00000000	          0.00000000	          0.00000000	         -1.73405117	          0.00000000	
          0.96000000	          0.00000000	          0.00000000	          0.00000000	          0.00000000	          0.00000000	          0.00000000	        -12.70906718	        389.87120475	         21.35379049	          0.10510120	         -0.05000000	         -0.00398892	          0.00000000	          0.00000000	          0.00000000	          0.00000000	         -1.86310580	          0.00000000	
          0.96400000	          0.00000000	          0.00000000	          0.00000000	          0.00000000	          0.00000000	          0.00000000	        -10.86730695	        390.26086799	         21.56767441	          0.10562411	         -0.05000000	         -0.00362909	          0.00000000	          0.00000000	          0.00000000	          0.00000000	         -2.01214121	          0.00000000	
          0.96800000	          0.00000000	          0.00000000	          0.00000000	          0.00000000	          0.00000000	          0.00000000	         -8.80368269	        391.42706573	         21.61374315	          0.10629178	         -0.05000000	         -0.00319275	          0.00000000	          0.00000000	          0.00000000	          0.00000000	         -2.19135000	          0.00000000	
          0.97200000	          0.00000000	          0.00000000	          0.00000000	          0.00000000	          0.00000000	          0.00000000	         -6.47340099	        393.36189537	         21.44858180	          0.10703307	         -0.05000000	         -0.00272803	          0.00000000	          0.00000000	          0.00000000	          0.00000000	         -2.40939281	          0.00000000	
          0.97600000	          0.00000000	          0.00000000	          0.00000000	          0.00000000	          0.00000000	          0.00000000	         -3.86163247	        396.01768538	         21.06822581	          0.10774782	         -0.05000000	         -0.00228862	          0.00000000	          0.00000000	          0.00000000	          0.00000000	         -2.67187030	          0.00000000	
          0.98000000	          0.00000000	          0.00000000	          0.00000000	          0.00000000	          0.00000000	          0.00000000	         -0.98379068	        399.36564871	         20.50958454	          0.10835556	         -0.05000000	         -0.00191681	          0.00000000	          0.00000000	          0.00000000	          0.00000000	         -2.98024660	          0.00000000	
          0.98400000	          0.00000000	          0.00000000	          0.00000000	          0.00000000	          0.00000000	          0.00000000	          2.12786039	        403.45556999	         19.83316038	          0.10880980	         -0.05000000	         -0.00162832	          0.00000000	          0.00000000	          0.00000000	          0.00000000	         -3.33151659	          0.00000000	
          0.98800000	          0.00000000	          0.00000000	          0.00000000	          0.00000000	          0.00000000	          0.00000000	          5.44344475	        408.40737467	         19.08901833	          0.10908613	         -0.05000000	         -0.00141459	          0.00000000	          0.00000000	          0.00000000	          0.00000000	         -3.71866711	          0.00000000	
          0.99200000	          0.00000000	          0.00000000	          0.00000000	          0.00000000	          0.00000000	          0.00000000	          8.94905840	        414.34946660	         18.29419650	          0.10921994	         -0.05000000	         -0.00124962	          0.00000000	          0.00000000	          0.00000000	          0.00000000	         -4.13166340	          0.00000000	
          0.99600000	          0.00000000	          0.00000000	          0.00000000	          0.00000000	          0.00000000	          0.00000000	         12.64200033	        421.35262606	         17.45152906	          0.10930592	         -0.05000000	         -0.00109189	          0.00000000	          0.00000000	          0.00000000	          0.00000000	         -4.55860442	          0.00000000	
